# xmcd
#
# Track frame offsets:
#	150
#	9810
#	22274
#	35964
#	48818
#	59619
#	71944
#	82805
#	98768
#	111455
#	124023
#	139651
#	152248
#	161217
#
# Disc length: 2312 seconds
#
# Revision: 1
# Processed by: cddbd v1.5.2PL0 Copyright (c) Steve Scherf et al.
# Submitted via: audiograbber 1.83.01
#
DISCID=c209060e
DTITLE=Johnny Paycheck - At Carnegie Hall
DYEAR=1966
DGENRE=Country
TTITLE0=King Of The Road
TTITLE1=Bayou Bum
TTITLE2=Not What I Had In Mind
TTITLE3=Pride Covered Ears
TTITLE4=He's In A Hurry
TTITLE5=Something He'll Have To Learn
TTITLE6=My Last Night In Town
TTITLE7=Ballad Of The Green Berets
TTITLE8=Yes, She's Gone
TTITLE9=Wherever You Are
TTITLE10=Handcuffed To Love
TTITLE11=Ballad Of Frisco Bay
TTITLE12=Big Town Baby
TTITLE13=Understanding Makes Love
EXTD=
EXTT0=
EXTT1=
EXTT2=
EXTT3=
EXTT4=
EXTT5=
EXTT6=
EXTT7=
EXTT8=
EXTT9=
EXTT10=
EXTT11=
EXTT12=
EXTT13=
PLAYORDER=
